# Blender v2.77 (sub 0) OBJ File: ''
# www.blender.org
v -0.063984 -0.063984 0.012305
v 0.063984 -0.063984 0.012305
v -0.063984 -0.063984 -0.000352
v 0.063984 -0.063984 -0.000352
v -0.063984 0.063984 0.012305
v -0.063984 0.063984 -0.000352
v 0.063984 0.063984 0.012305
v 0.063984 0.063984 -0.000352
v 0.052266 -0.052266 0.012305
v 0.052266 0.052266 0.012305
v -0.052266 0.052266 0.012305
v -0.052266 -0.052266 0.012305
v -0.048750 0.048750 0.008359
v 0.048750 0.048750 0.008359
v 0.048750 -0.048750 0.008359
v -0.048750 -0.048750 0.008359
vt 1.0000 1.0000
vt 1.0000 0.9189
vt 0.0000 1.0000
vt 0.0000 0.9189
vt 1.0000 1.0000
vt 1.0000 0.9189
vt 0.0000 1.0000
vt 0.0000 0.9189
vt 1.0000 1.0000
vt 1.0000 0.9189
vt 0.0000 1.0000
vt 0.0000 0.9189
vt 1.0000 1.0000
vt 1.0000 0.9189
vt 0.0000 1.0000
vt 0.0000 0.9189
vt 0.9082 0.9092
vt 0.9082 0.0918
vt 1.0000 0.0000
vt 0.0908 0.0918
vt 0.0000 0.0000
vt 0.0908 0.9092
vt 0.1182 0.1191
vt 0.8809 0.8818
vt 0.8809 0.1191
vt 0.1182 0.8818
vn 0.0000 -1.0000 0.0000
vn -1.0000 0.0000 0.0000
vn 0.0000 1.0000 0.0000
vn 1.0000 0.0000 0.0000
vn 0.0000 -0.0000 1.0000
vn -0.2501 0.1040 0.9626
vn -0.2229 -0.0366 0.9742
vn 0.0366 -0.2229 0.9742
vn 0.2229 0.0366 0.9742
vn 0.3594 -0.3182 0.8773
vn -0.3182 0.3594 0.8773
vn -0.3482 -0.3482 0.8704
vn 0.2837 0.3269 0.9014
f 1/1/1 3/2/1 2/3/1
f 2/3/1 3/2/1 4/4/1
f 5/5/2 6/6/2 1/7/2
f 1/7/2 6/6/2 3/8/2
f 7/9/3 8/10/3 5/11/3
f 5/11/3 8/10/3 6/12/3
f 2/13/4 4/14/4 7/15/4
f 7/15/4 4/14/4 8/16/4
f 1/7/5 2/13/5 9/17/6
f 9/17/6 2/13/5 10/18/7
f 2/13/5 7/19/5 10/18/7
f 10/18/7 7/19/5 11/20/8
f 7/19/5 5/21/5 11/20/8
f 11/20/8 5/21/5 12/22/9
f 5/21/5 1/7/5 12/22/9
f 12/22/9 1/7/5 9/17/6
f 13/23/10 15/24/11 14/25/12
f 14/25/12 15/24/11 9/17/6
f 15/24/11 12/22/9 9/17/6
f 12/22/9 15/24/11 16/26/13
f 16/26/13 15/24/11 13/23/10
f 12/22/9 16/26/13 11/20/8
f 11/20/8 16/26/13 13/23/10
f 9/17/6 10/18/7 14/25/12
f 14/25/12 10/18/7 13/23/10
f 10/18/7 11/20/8 13/23/10
